<?xml version="1.0" encoding="UTF-8"?>
<svg width="32px" height="32px" viewBox="0 0 32 32" version="1.1" xmlns="http://www.w3.org/2000/svg">
    <g stroke="none" stroke-width="1" fill="none" fill-rule="evenodd">
        <path d="M24,22 C25.1045695,22 26,21.1045695 26,20 C26,18.8954305 25.1045695,18 24,18 C22.8954305,18 22,18.8954305 22,20 C22,21.1045695 22.8954305,22 24,22 Z M8,22 C9.1045695,22 10,21.1045695 10,20 C10,18.8954305 9.1045695,18 8,18 C6.8954305,18 6,18.8954305 6,20 C6,21.1045695 6.8954305,22 8,22 Z" fill="#1890FF"/>
        <path d="M26,12 L24,7 C23.7238576,6.29622426 23.0296224,6 22.3333333,6 L9.66666667,6 C8.97037756,6 8.27614237,6.29622426 8,7 L6,12 L4,12 C2.8954305,12 2,12.8954305 2,14 L2,18 C2,19.1045695 2.8954305,20 4,20 L4.10876133,20 C4.03686319,19.6778591 4,19.3425324 4,19 C4,16.790861 5.790861,15 8,15 C10.209139,15 12,16.790861 12,19 C12,19.3425324 11.9631368,19.6778591 11.8912387,20 L20.1087613,20 C20.0368632,19.6778591 20,19.3425324 20,19 C20,16.790861 21.790861,15 24,15 C26.209139,15 28,16.790861 28,19 C28,19.3425324 27.9631368,19.6778591 27.8912387,20 L28,20 C29.1045695,20 30,19.1045695 30,18 L30,14 C30,12.8954305 29.1045695,12 28,12 L26,12 Z" fill="#1890FF"/>
    </g>
</svg> 